<svg width="7" height="12" viewBox="0 0 7 12" fill="none" xmlns="http://www.w3.org/2000/svg">
<path d="M6.64327 0.264138C6.8124 0.433317 6.90741 0.662742 6.90741 0.901961C6.90741 1.14118 6.8124 1.37061 6.64327 1.53978L2.17761 6.00545L6.64327 10.4711C6.8076 10.6413 6.89854 10.8691 6.89648 11.1057C6.89442 11.3422 6.79955 11.5685 6.63228 11.7358C6.46501 11.903 6.23874 11.9979 6.0022 12C5.76566 12.002 5.53777 11.9111 5.36762 11.7468L0.264138 6.64327C0.0950106 6.47409 0 6.24467 0 6.00545C0 5.76623 0.0950106 5.5368 0.264138 5.36762L5.36762 0.264138C5.5368 0.0950107 5.76623 0 6.00545 0C6.24467 0 6.47409 0.0950107 6.64327 0.264138Z" fill="#595959"/>
</svg>
