<svg width="202" height="103" viewBox="0 0 202 103" fill="none" xmlns="http://www.w3.org/2000/svg">
<path d="M195.558 72.8133C195.926 73.0608 196.364 73.1826 196.807 73.1603C197.25 73.138 197.673 72.9729 198.015 72.6897L201.219 69.4735C201.405 69.3073 201.554 69.1036 201.656 68.8757C201.758 68.6479 201.811 68.401 201.811 68.1513C201.811 67.9015 201.758 67.6547 201.656 67.4268C201.554 67.1989 201.405 66.9952 201.219 66.829L199.156 64.7149C198.034 63.437 197.435 61.7814 197.48 60.0799V27.8847C197.497 27.4955 197.436 27.1068 197.299 26.7422C197.162 26.3775 196.953 26.0444 196.684 25.7629C196.414 25.4806 196.09 25.2555 195.732 25.1011C195.373 24.9467 194.987 24.8662 194.597 24.8643H191.889C191.498 24.8572 191.11 24.9285 190.747 25.074C190.385 25.2194 190.055 25.4362 189.777 25.7114C189.217 26.2676 188.906 27.0247 188.916 27.8126V60.5408C188.923 62.9776 189.534 65.3744 190.693 67.5163C191.852 69.6583 193.524 71.4784 195.558 72.8133ZM178.943 72.8133C179.307 73.0653 179.743 73.1899 180.185 73.1675C180.626 73.1452 181.048 72.9772 181.384 72.6897L184.607 69.4735C184.79 69.3074 184.936 69.1048 185.036 68.8786C185.136 68.6524 185.188 68.4077 185.188 68.1603C185.188 67.9128 185.136 67.6681 185.036 67.4419C184.936 67.2158 184.79 67.0131 184.607 66.847L182.541 64.7149C181.418 63.4448 180.82 61.794 180.868 60.0979V27.9542C180.878 27.1663 180.567 26.4092 180.004 25.853C179.727 25.5778 179.397 25.3611 179.034 25.2156C178.671 25.0701 178.283 24.9988 177.892 25.0059H175.258C174.868 24.9987 174.481 25.0702 174.119 25.2161C173.757 25.3621 173.428 25.5796 173.151 25.8556C172.594 26.4092 172.288 27.1689 172.303 27.9542V60.5949C172.314 63.0231 172.927 65.4106 174.086 67.5431C175.245 69.6756 176.914 71.4865 178.943 72.8133ZM128.211 41.061H124.046C123.462 41.0513 122.892 41.2362 122.424 41.5867C121.957 41.9372 121.619 42.4334 121.463 42.9974L116.334 59.637L110.992 42.9253C110.814 42.381 110.467 41.9073 110.003 41.5724C109.539 41.2375 108.982 41.0584 108.41 41.061H104.848C103.692 41.061 102.669 41.818 102.338 42.9253L96.9081 59.5829L91.7791 42.9974C91.6265 42.4319 91.2892 41.9339 90.8211 41.5829C90.353 41.2319 89.7811 41.0482 89.1966 41.061H85.0467C84.7523 41.0431 84.458 41.0986 84.1903 41.2227C83.9226 41.3467 83.6897 41.5353 83.5126 41.7717C83.3361 42.0072 83.2211 42.2832 83.1781 42.5746C83.135 42.866 83.1652 43.1636 83.266 43.4403L92.4189 71.3224C92.7658 72.4167 93.7783 73.1686 94.9295 73.1867H98.8481C100.074 73.2459 101.176 72.4476 101.5 71.2683L106.629 54.1497L111.974 71.2683C112.287 72.4142 113.343 73.2047 114.536 73.1867H118.416C119.57 73.1635 120.579 72.4142 120.929 71.3224L129.992 43.4403C130.093 43.1636 130.123 42.866 130.08 42.5746C130.037 42.2832 129.922 42.0072 129.745 41.7717C129.568 41.5353 129.335 41.3467 129.068 41.2227C128.8 41.0986 128.506 41.0431 128.211 41.061ZM162.703 41.061H160.051C158.438 41.061 157.122 42.3485 157.096 43.9553C154.494 41.6684 151.152 40.4057 147.691 40.4018C139.253 40.4018 132.415 47.9337 132.415 57.1135C132.415 66.296 139.25 73.9489 147.691 73.9489C151.17 73.9387 154.521 72.6358 157.096 70.2924L159.802 73.3103H162.706C163.492 73.3103 164.248 72.991 164.795 72.4245C165.342 71.858 165.635 71.0958 165.607 70.3078V44.0274C165.614 43.6368 165.543 43.2487 165.397 42.8863C165.252 42.524 165.034 42.1948 164.759 41.9185C164.482 41.642 164.154 41.4237 163.792 41.2765C163.43 41.1292 163.042 41.0559 162.652 41.061H162.703ZM149.118 66.5792C144.664 66.5792 141.121 62.4077 141.121 57.2577C141.121 52.1077 144.682 47.9337 149.118 47.9337C153.55 47.9337 157.042 52.0537 157.042 57.2551C157.042 62.4592 153.481 66.5792 149.118 66.5792Z" fill="black"/>
<path d="M71.2305 25.006H68.63C68.2393 24.9989 67.8512 25.0702 67.4885 25.2157C67.1257 25.3612 66.7957 25.578 66.5178 25.8532C65.9576 26.4094 65.6441 27.1664 65.657 27.9544V43.9374C63.055 41.6505 59.7131 40.3878 56.2521 40.3839C47.8135 40.4225 40.9577 47.9518 40.9577 57.0622C40.9577 66.1725 47.7955 73.8435 56.2367 73.8435C59.7166 73.8291 63.0768 72.5688 65.7109 70.29L68.3448 73.2383H71.2305C71.6199 73.2482 72.0073 73.1788 72.3692 73.0344C72.7312 72.8901 73.0601 72.6737 73.3363 72.3984C73.6125 72.1231 73.8301 71.7945 73.9761 71.4326C74.122 71.0706 74.1933 70.6828 74.1855 70.2925V27.9544C74.201 27.169 73.8926 26.4094 73.3376 25.8532C73.061 25.5776 72.7319 25.3606 72.3699 25.2151C72.0079 25.0696 71.6204 24.9985 71.2305 25.006ZM57.6963 66.5124C53.2457 66.5124 49.7022 62.3384 49.7022 57.1884C49.7022 52.0384 53.2637 47.8823 57.6963 47.8823C62.1314 47.8823 65.621 52.0538 65.621 57.1884C65.621 62.3203 62.0595 66.5099 57.6963 66.5099V66.5124ZM31.5735 37.7935C32.5693 37.7984 33.5443 37.5075 34.3753 36.9575C35.2063 36.4076 35.856 35.6232 36.2425 34.7035C37.0288 32.8237 36.6022 30.6607 35.1632 29.2187C34.4571 28.5132 33.5585 28.0326 32.5806 27.8375C31.6026 27.6423 30.5889 27.7412 29.6668 28.1218C28.7467 28.4995 27.9594 29.1428 27.4048 29.9699C26.8503 30.797 26.5536 31.7706 26.5524 32.7671C26.5524 35.5352 28.7983 37.7832 31.5735 37.7935ZM30.2733 73.1868H32.9816C33.7679 73.1997 34.5286 72.8959 35.0887 72.3371C35.364 72.0627 35.5811 71.7353 35.7268 71.3746C35.8726 71.014 35.9439 70.6275 35.9367 70.2385V44.025C35.9438 43.6348 35.8724 43.2472 35.7267 42.8853C35.581 42.5234 35.364 42.1946 35.0887 41.9186C34.8123 41.6421 34.4835 41.4239 34.1216 41.2766C33.7598 41.1293 33.3722 41.0561 32.9816 41.0611H30.2707C29.8802 41.0561 29.4926 41.1293 29.1307 41.2766C28.7689 41.4239 28.44 41.6421 28.1636 41.9186C27.888 42.1949 27.6708 42.5241 27.5251 42.8865C27.3794 43.2488 27.3082 43.6369 27.3156 44.0275V70.2385C27.3002 71.0238 27.606 71.7835 28.1636 72.3397C28.7212 72.8959 29.4818 73.1997 30.2707 73.1868H30.2733ZM96.7108 102.168C98.0122 102.167 99.2613 101.655 100.19 100.742C101.119 99.829 101.654 98.5875 101.68 97.2837C101.695 96.6212 101.571 95.9631 101.317 95.3515C101.062 94.74 100.683 94.1886 100.203 93.7328L93.08 86.7365C92.6205 86.2558 92.0671 85.8751 91.4544 85.6181C90.8416 85.3612 90.1826 85.2335 89.5185 85.243C88.2185 85.2486 86.9721 85.7622 86.044 86.6743C85.116 87.5865 84.5796 88.8255 84.5488 90.1278C84.5231 91.4693 85.0653 92.7594 86.0443 93.6813L93.0594 100.783C94.0025 101.72 95.2924 102.228 96.6235 102.186L96.7108 102.168ZM89.6958 16.8381C91.0345 16.8561 92.3245 16.3231 93.2573 15.3652L100.38 8.34835C101.331 7.4471 101.863 6.19307 101.858 4.88755C101.846 4.22762 101.704 3.5766 101.438 2.97262C101.172 2.36864 100.789 1.82383 100.311 1.3701C99.831 0.915434 99.2661 0.560516 98.6486 0.325833C98.0312 0.0911496 97.3734 -0.0186497 96.7134 0.00277327C96.0542 -0.0152127 95.3981 0.101541 94.7854 0.345916C94.1726 0.59029 93.616 0.957166 93.1493 1.42417L86.1343 8.52345C85.6481 8.97585 85.2634 9.52658 85.0055 10.1392C84.7477 10.7518 84.6227 11.4123 84.6387 12.0769C84.6702 13.3784 85.2065 14.6162 86.1339 15.5278C87.0613 16.4394 88.3068 16.9528 89.6058 16.9591L89.6958 16.8381ZM11.9853 16.8381C13.2852 16.8325 14.5317 16.3189 15.4597 15.4068C16.3877 14.4946 16.9241 13.2556 16.9549 11.9533C16.958 11.3042 16.8266 10.6615 16.5692 10.0658C16.3118 9.47014 15.9339 8.93444 15.4594 8.49255L8.44432 1.42417C7.98817 0.967407 7.44582 0.606245 6.8489 0.361761C6.25198 0.117277 5.61245 -0.00563449 4.96762 0.000198274C3.66631 0.0019678 2.41749 0.514635 1.48895 1.42827C0.560412 2.3419 0.0260844 3.58376 0.000543227 4.88755C-0.0277226 6.22655 0.509328 7.51405 1.48065 8.43847L8.60364 15.5403C9.53641 16.5008 10.8238 17.0338 12.1651 17.0158L11.9853 16.8381ZM4.97019 102.168C5.62792 102.19 6.2831 102.077 6.89553 101.835C7.50796 101.594 8.06473 101.23 8.53169 100.765L15.5468 93.6607C16.5284 92.7414 17.0705 91.4513 17.0423 90.1097C17.0109 88.8088 16.4749 87.5713 15.548 86.6598C14.6212 85.7483 13.3764 85.2345 12.0778 85.2275C10.7647 85.2327 9.51071 85.7683 8.60621 86.7185L1.48065 93.8203C0.509328 94.7473 -0.0277226 96.0348 0.000543227 97.3738C0.0274207 98.6771 0.562687 99.9181 1.49164 100.831C2.42058 101.743 3.6693 102.255 4.97019 102.256" fill="#5500FF"/>
</svg>
