<svg width="16" height="16" viewBox="0 0 16 16" fill="none" xmlns="http://www.w3.org/2000/svg">
    <path
        d="M10.7067 5.29333C10.8939 5.48083 10.9991 5.735 10.9991 6C10.9991 6.265 10.8939 6.51917 10.7067 6.70667L9.41333 8L10.7067 9.29333C10.8833 9.4829 10.9795 9.73363 10.9749 9.9927C10.9703 10.2518 10.8654 10.4989 10.6822 10.6822C10.4989 10.8654 10.2518 10.9703 9.9927 10.9749C9.73363 10.9795 9.4829 10.8833 9.29333 10.7067L8 9.41333L6.70667 10.7067C6.5171 10.8833 6.26637 10.9795 6.0073 10.9749C5.74824 10.9703 5.50106 10.8654 5.31784 10.6822C5.13462 10.4989 5.02967 10.2518 5.0251 9.9927C5.02053 9.73363 5.11669 9.4829 5.29333 9.29333L6.58667 8L5.29333 6.70667C5.11669 6.5171 5.02053 6.26637 5.0251 6.0073C5.02967 5.74824 5.13462 5.50106 5.31784 5.31784C5.50106 5.13462 5.74824 5.02967 6.0073 5.0251C6.26637 5.02053 6.5171 5.11669 6.70667 5.29333L8 6.58667L9.29333 5.29333C9.48083 5.10607 9.735 5.00088 10 5.00088C10.265 5.00088 10.5192 5.10607 10.7067 5.29333ZM0 8C0 5.87827 0.842855 3.84344 2.34315 2.34315C3.84344 0.842855 5.87827 0 8 0C10.1217 0 12.1566 0.842855 13.6569 2.34315C15.1571 3.84344 16 5.87827 16 8C16 10.1217 15.1571 12.1566 13.6569 13.6569C12.1566 15.1571 10.1217 16 8 16C5.87827 16 3.84344 15.1571 2.34315 13.6569C0.842855 12.1566 0 10.1217 0 8H0ZM8 2C7.21207 2 6.43185 2.15519 5.7039 2.45672C4.97595 2.75825 4.31451 3.20021 3.75736 3.75736C3.20021 4.31451 2.75825 4.97595 2.45672 5.7039C2.15519 6.43185 2 7.21207 2 8C2 8.78793 2.15519 9.56815 2.45672 10.2961C2.75825 11.0241 3.20021 11.6855 3.75736 12.2426C4.31451 12.7998 4.97595 13.2417 5.7039 13.5433C6.43185 13.8448 7.21207 14 8 14C9.5913 14 11.1174 13.3679 12.2426 12.2426C13.3679 11.1174 14 9.5913 14 8C14 6.4087 13.3679 4.88258 12.2426 3.75736C11.1174 2.63214 9.5913 2 8 2Z"
        fill="#F5222D" fill-opacity="0.75" />
</svg>