<svg width="17" height="13" viewBox="0 0 17 13" fill="none" xmlns="http://www.w3.org/2000/svg">
<path d="M6.02734 6.625H15.625M10.5625 3.8125V2.40625C10.5625 2.03329 10.4143 1.6756 10.1506 1.41188C9.8869 1.14816 9.52921 1 9.15625 1H2.40625C2.03329 1 1.6756 1.14816 1.41188 1.41188C1.14816 1.6756 1 2.03329 1 2.40625V10.8438C1 11.2167 1.14816 11.5744 1.41188 11.8381C1.6756 12.1018 2.03329 12.25 2.40625 12.25H9.15625C9.52921 12.25 9.8869 12.1018 10.1506 11.8381C10.4143 11.5744 10.5625 11.2167 10.5625 10.8438V9.4375V3.8125ZM12.8125 3.8125L15.625 6.625L12.8125 9.4375V3.8125Z" stroke="#5500FF" stroke-linecap="round" stroke-linejoin="round"/>
</svg>
